<svg xmlns="http://www.w3.org/2000/svg" xmlns:xlink="http://www.w3.org/1999/xlink" width="32" height="32" viewBox="0 0 32 32">
  <defs>
    <clipPath id="clip-path">
      <rect id="Rectangle_41" data-name="Rectangle 41" width="26" height="26" transform="translate(0 0)" fill="#e65653" stroke="#707070" stroke-width="1"/>
    </clipPath>
  </defs>
  <g id="Group_95" data-name="Group 95" transform="translate(-325.704 -5922.704)">
    <g id="Rectangle_40" data-name="Rectangle 40" transform="translate(325.704 5922.704)" fill="#e65653" stroke="#707070" stroke-width="1" opacity="0">
      <rect width="32" height="32" stroke="none"/>
      <rect x="0.5" y="0.5" width="31" height="31" fill="none"/>
    </g>
    <g id="Mask_Group_6" data-name="Mask Group 6" transform="translate(328.704 5925.704)" clip-path="url(#clip-path)">
      <path id="placeholder_1_" data-name="placeholder (1)" d="M8.965,0A9.171,9.171,0,0,0-.2,9.16c0,6.348,9.169,17.193,9.169,17.193S18.125,15.2,18.125,9.16A9.171,9.171,0,0,0,8.965,0Zm2.764,11.842a3.909,3.909,0,1,1,0-5.527A3.9,3.9,0,0,1,11.729,11.842Zm0,0" transform="translate(4.034 -0.177)" fill="#e65653"/>
    </g>
  </g>
</svg>
