<svg xmlns="http://www.w3.org/2000/svg" xmlns:xlink="http://www.w3.org/1999/xlink" width="32" height="32" viewBox="0 0 32 32">
  <defs>
    <clipPath id="clip-path">
      <rect id="Rectangle_41" data-name="Rectangle 41" width="28" height="28" fill="#e65653" stroke="#707070" stroke-width="1"/>
    </clipPath>
  </defs>
  <g id="Group_96" data-name="Group 96" transform="translate(-326 -5923)">
    <g id="Rectangle_40" data-name="Rectangle 40" transform="translate(326 5923)" fill="#e65653" stroke="#707070" stroke-width="1" opacity="0">
      <rect width="32" height="32" stroke="none"/>
      <rect x="0.5" y="0.5" width="31" height="31" fill="none"/>
    </g>
    <g id="Mask_Group_4" data-name="Mask Group 4" transform="translate(328 5925)" clip-path="url(#clip-path)">
      <g id="email" transform="translate(-0.583 3.974)">
        <g id="Group_25" data-name="Group 25" transform="translate(0 0)">
          <g id="Group_24" data-name="Group 24">
            <path id="Path_1" data-name="Path 1" d="M27.344,3.125H1.823A1.824,1.824,0,0,0,0,4.948V5.985l14.583,6.176L29.167,5.983V4.948A1.824,1.824,0,0,0,27.344,3.125Z" transform="translate(0 -3.125)" fill="#e65653"/>
          </g>
        </g>
        <g id="Group_27" data-name="Group 27" transform="translate(0 4.84)">
          <g id="Group_26" data-name="Group 26">
            <path id="Path_2" data-name="Path 2" d="M14.939,12.468a.9.9,0,0,1-.711,0L0,6.444V19.833a1.824,1.824,0,0,0,1.823,1.823H27.344a1.824,1.824,0,0,0,1.823-1.823V6.444Z" transform="translate(0 -6.444)" fill="#e65653"/>
          </g>
        </g>
      </g>
    </g>
  </g>
</svg>
