<svg xmlns="http://www.w3.org/2000/svg" xmlns:xlink="http://www.w3.org/1999/xlink" width="32" height="32" viewBox="0 0 32 32">
  <defs>
    <clipPath id="clip-path">
      <rect id="Rectangle_41" data-name="Rectangle 41" width="20" height="20" transform="translate(0 0)" fill="#e52f2a" stroke="#707070" stroke-width="1"/>
    </clipPath>
    <clipPath id="clip-path-2">
      <rect id="Rectangle_40" data-name="Rectangle 40" width="20" height="20" transform="translate(325.238 5922.238)" fill="#e65653" stroke="#707070" stroke-width="1" opacity="0"/>
    </clipPath>
    <clipPath id="clip-path-3">
      <rect id="Rectangle_41-2" data-name="Rectangle 41" width="16" height="16" transform="translate(-0.056 -0.056)" fill="#e65653" stroke="#707070" stroke-width="1"/>
    </clipPath>
  </defs>
  <g id="Group_110" data-name="Group 110" transform="translate(20350 -17922)">
    <rect id="Rectangle_82" data-name="Rectangle 82" width="32" height="32" rx="4" transform="translate(-20350 17922)" fill="#fde5e3"/>
    <g id="Group_95" data-name="Group 95" transform="translate(-20671.703 12003.297)" opacity="0.89">
      <g id="Rectangle_40-2" data-name="Rectangle 40" transform="translate(325.704 5922.704)" fill="#e52f2a" stroke="#707070" stroke-width="1" opacity="0">
        <rect width="24" height="24" stroke="none"/>
        <rect x="0.5" y="0.5" width="23" height="23" fill="none"/>
      </g>
    </g>
    <g id="Group_108" data-name="Group 108" transform="translate(-20669.236 12005.764)">
      <g id="Mask_Group_14" data-name="Mask Group 14" clip-path="url(#clip-path-2)">
        <g id="twitter" transform="translate(325.238 5922.238)">
          <g id="Group_111" data-name="Group 111">
            <path id="Path_216" data-name="Path 216" d="M20,3.8a8.549,8.549,0,0,1-2.363.648,4.077,4.077,0,0,0,1.8-2.266,8.194,8.194,0,0,1-2.6.992,4.1,4.1,0,0,0-7.092,2.8,4.222,4.222,0,0,0,.1.935A11.606,11.606,0,0,1,1.392,2.623,4.1,4.1,0,0,0,2.652,8.1,4.049,4.049,0,0,1,.8,7.6v.045a4.119,4.119,0,0,0,3.285,4.029,4.092,4.092,0,0,1-1.075.135,3.625,3.625,0,0,1-.776-.07,4.139,4.139,0,0,0,3.831,2.856A8.239,8.239,0,0,1,.981,16.341,7.68,7.68,0,0,1,0,16.285a11.543,11.543,0,0,0,6.29,1.84A11.59,11.59,0,0,0,17.96,6.458c0-.181-.006-.356-.015-.53A8.18,8.18,0,0,0,20,3.8Z" fill="#e65653"/>
          </g>
        </g>
      </g>
    </g>
  </g>
</svg>
