<svg xmlns="http://www.w3.org/2000/svg" xmlns:xlink="http://www.w3.org/1999/xlink" width="32" height="32" viewBox="0 0 32 32">
  <defs>
    <clipPath id="clip-path">
      <rect id="Rectangle_41" data-name="Rectangle 41" width="20" height="20" transform="translate(0 0)" fill="#e52f2a" stroke="#707070" stroke-width="1"/>
    </clipPath>
    <clipPath id="clip-path-2">
      <rect id="Rectangle_40" data-name="Rectangle 40" width="20" height="20" transform="translate(325.238 5922.238)" fill="#e65653" stroke="#707070" stroke-width="1" opacity="0"/>
    </clipPath>
    <clipPath id="clip-path-3">
      <rect id="Rectangle_41-2" data-name="Rectangle 41" width="16" height="16" transform="translate(-0.056 -0.056)" fill="#e65653" stroke="#707070" stroke-width="1"/>
    </clipPath>
  </defs>
  <g id="Group_109" data-name="Group 109" transform="translate(20350 -17922)">
    <rect id="Rectangle_82" data-name="Rectangle 82" width="32" height="32" rx="4" transform="translate(-20350 17922)" fill="#fde5e3"/>
    <g id="Group_95" data-name="Group 95" transform="translate(-20671.703 12003.297)" opacity="0.89">
      <g id="Rectangle_40-2" data-name="Rectangle 40" transform="translate(325.704 5922.704)" fill="#e52f2a" stroke="#707070" stroke-width="1" opacity="0">
        <rect width="24" height="24" stroke="none"/>
        <rect x="0.5" y="0.5" width="23" height="23" fill="none"/>
      </g>
    </g>
    <g id="Group_108" data-name="Group 108" transform="translate(-20669.236 12005.764)">
      <g id="Mask_Group_13" data-name="Mask Group 13" clip-path="url(#clip-path-2)">
        <path id="youtube" d="M19.588,2A2.506,2.506,0,0,0,17.825.238C16.26-.19,10-.19,10-.19s-6.26,0-7.825.412A2.556,2.556,0,0,0,.412,2,26.4,26.4,0,0,0,0,6.812a26.3,26.3,0,0,0,.412,4.81,2.506,2.506,0,0,0,1.763,1.763c1.581.428,7.825.428,7.825.428s6.26,0,7.825-.412a2.506,2.506,0,0,0,1.763-1.763A26.41,26.41,0,0,0,20,6.828,25.062,25.062,0,0,0,19.588,2ZM8.007,9.81v-6l5.206,3Zm0,0" transform="translate(325.238 5925.426)" fill="#e65653"/>
      </g>
    </g>
  </g>
</svg>
